<svg width="99" height="90" viewBox="0 0 99 90" fill="none" xmlns="http://www.w3.org/2000/svg">
<path d="M81.3193 90C59.9468 90 38.5843 90 17.2118 90C16.6131 88.33 16.9723 87.8101 18.7883 87.8101C21.1131 87.8001 23.4479 87.81 25.7727 87.8C26.2118 87.8 26.6408 87.75 27.1098 87.72C27.2994 84.69 26.561 81.6101 28.9457 79.1801C31.3104 76.7701 34.3636 77.32 37.2871 77.24C37.2871 74.02 37.2871 70.92 37.2871 67.68C36.7184 67.68 36.2295 67.68 35.7406 67.68C26.1419 67.68 16.5333 67.6 6.9346 67.72C3.60201 67.76 1.20732 66.72 0 63.5C0 43.75 0 24 0 4.25C0.59867 2.26 1.85588 0.85 3.74169 0C34.0942 0 64.4368 0 94.7894 0C97.0244 0.82 98.2417 2.49997 98.7805 4.74997C98.7805 24.08 98.7805 43.42 98.7805 62.75C97.3137 66.87 96.1564 67.68 91.7162 67.68C82.1176 67.68 72.5289 67.68 62.9302 67.68C62.4413 67.68 61.9623 67.68 61.3437 67.68C61.3437 69.37 61.3437 70.9 61.3437 72.43C61.3437 74 61.3437 75.57 61.3437 77.25C62.521 77.25 63.5488 77.25 64.5765 77.25C68.9068 77.26 71.541 79.91 71.5609 84.26C71.5609 85.41 71.5609 86.55 71.5609 87.8C74.5443 87.8 77.3282 87.77 80.102 87.83C80.6209 87.84 81.3492 88.08 81.5687 88.45C81.7683 88.8 81.4191 89.47 81.3193 90ZM50.4579 25.5C50.4579 26.94 50.4579 28.14 50.4579 29.33C50.4579 33.75 50.4479 38.16 50.4878 42.58C50.4878 42.95 50.857 43.64 51.0765 43.64C53.3914 43.72 55.7063 43.69 58.1708 43.69C58.1708 41.22 58.1608 38.9 58.1708 36.58C58.1808 34.74 58.9191 34.02 60.765 34.02C67.5798 34.01 74.4047 34.01 81.2195 34.02C83.1353 34.02 83.8237 34.74 83.8237 36.69C83.8337 41.65 83.8337 46.61 83.8237 51.56C83.8237 53.58 83.1453 54.26 81.1298 54.26C74.5244 54.26 67.9092 54.26 61.3038 54.26C58.6896 54.26 58.1708 53.73 58.1608 51.12C58.1608 49.43 58.1608 47.75 58.1608 46.09C55.4768 46.09 53.0122 46.09 50.5377 46.09C50.5377 49.96 50.5377 53.73 50.5377 57.57C50.9867 57.6 51.3459 57.64 51.7151 57.64C63.1896 57.64 74.6542 57.65 86.1287 57.64C88.0843 57.64 88.6131 57.09 88.6131 55.08C88.6131 40.87 88.6131 26.67 88.6131 12.46C88.6131 10.38 88.1243 9.91001 86.0189 9.91001C61.5733 9.91001 37.1375 9.91001 12.6918 9.91001C10.5167 9.91001 9.98781 10.44 9.98781 12.65C9.98781 26.73 9.98781 40.81 9.98781 54.9C9.98781 57.1 10.5266 57.65 12.6918 57.65C24.0366 57.65 35.3914 57.65 46.7362 57.65C47.1752 57.65 47.6142 57.65 48.0433 57.65C48.0433 50.24 48.0433 43.02 48.0433 35.84C45.479 35.84 43.0145 35.84 40.4601 35.84C40.4601 37.81 40.4801 39.68 40.4501 41.55C40.4302 43.27 39.7218 44 38.0255 44C31.1209 44.01 24.2262 44.01 17.3216 44C15.5555 44 14.8271 43.27 14.8171 41.48C14.7972 36.4 14.7972 31.31 14.8171 26.23C14.8271 24.46 15.5754 23.75 17.3515 23.74C24.2062 23.73 31.071 23.73 37.9257 23.74C39.7217 23.74 40.4302 24.44 40.4402 26.23C40.4601 28.27 40.4202 30.31 40.4701 32.35C40.48 32.7 40.8093 33.34 40.9989 33.35C43.3437 33.42 45.6985 33.4 48.0233 33.4C48.0233 30.7 48.0233 28.2 48.0233 25.55C47.2949 25.9 46.7062 26.19 46.0976 26.46C44.7406 27.07 43.7927 26.5 44.1719 25.08C44.8603 22.49 44.2417 20.56 42.1663 18.87C41.0288 17.95 41.428 16.68 42.8748 16.64C45.5987 16.57 47.1553 15.26 48.1231 12.81C48.632 11.51 49.8891 11.47 50.398 12.74C51.3958 15.24 53.0022 16.53 55.7461 16.64C57.143 16.69 57.5621 17.94 56.4945 18.8C54.3193 20.54 53.7107 22.57 54.4491 25.23C54.7783 26.41 53.8404 27.02 52.693 26.55C52.0544 26.28 51.3958 25.94 50.4579 25.5ZM71.8304 59.96C71.1619 59.96 70.633 59.96 70.1042 59.96C50.9468 59.96 31.7794 59.96 12.622 59.96C9.28938 59.96 7.73282 58.4 7.73282 55.08C7.73282 40.92 7.73282 26.75 7.73282 12.59C7.73282 9.1 9.25945 7.57999 12.7517 7.57999C21.143 7.57999 29.5444 7.57999 37.9357 7.57999C54.02 7.57999 70.1042 7.57999 86.1885 7.57999C89.2616 7.57999 90.9979 9.22998 90.9979 12.2C91.0078 26.61 91.0078 41.03 90.9979 55.44C90.9979 58.23 89.2617 59.93 86.4679 59.96C85.2805 59.97 84.0932 59.96 82.8759 59.96C82.8759 61.84 82.8759 63.53 82.8759 65.35C86.1087 65.35 89.2616 65.35 92.4046 65.35C95.3681 65.35 96.3559 64.35 96.3559 61.37C96.3559 43 96.3559 24.63 96.3559 6.25998C96.3559 3.18998 95.3881 2.20999 92.3548 2.20999C63.6786 2.20999 34.9923 2.20999 6.31598 2.20999C3.31266 2.20999 2.29495 3.23999 2.29495 6.26999C2.29495 24.6 2.29495 42.93 2.29495 61.26C2.29495 64.38 3.27277 65.36 6.40581 65.35C23.7373 65.33 41.0688 65.31 58.4003 65.3C62.4313 65.3 66.4623 65.33 70.4934 65.34C70.9324 65.34 71.3614 65.3 71.8204 65.27C71.8304 63.47 71.8304 61.82 71.8304 59.96ZM29.4745 87.69C42.785 87.69 55.9357 87.69 69.2461 87.69C69.2461 86.46 69.2561 85.31 69.2461 84.15C69.2062 81.18 67.5599 79.55 64.5666 79.54C60.9546 79.53 57.3425 79.54 53.7206 79.54C47.1153 79.54 40.51 79.53 33.9047 79.55C31.52 79.56 29.704 80.97 29.5044 83.11C29.3648 84.59 29.4745 86.09 29.4745 87.69ZM39.7617 67.77C39.7617 71 39.7617 74.09 39.7617 77.17C46.2074 77.17 52.5432 77.17 58.8792 77.17C58.8792 74 58.8792 70.91 58.8792 67.77C52.4634 67.77 46.1575 67.77 39.7617 67.77ZM81.5189 36.39C74.4945 36.39 67.5798 36.39 60.5853 36.39C60.5853 41.6 60.5853 46.73 60.5853 51.87C67.6197 51.87 74.5544 51.87 81.5189 51.87C81.5189 46.69 81.5189 41.62 81.5189 36.39ZM17.2317 41.63C24.306 41.63 31.2107 41.63 38.0854 41.63C38.0854 36.39 38.0854 31.26 38.0854 26.15C31.071 26.15 24.1563 26.15 17.2317 26.15C17.2317 31.36 17.2317 36.47 17.2317 41.63ZM74.265 65.2C76.3703 65.2 78.3759 65.2 80.3714 65.2C80.3714 63.43 80.3714 61.75 80.3714 60.08C78.2861 60.08 76.3105 60.08 74.265 60.08C74.265 61.8 74.265 63.44 74.265 65.2ZM46.5566 23.85C48.5023 22.36 50.1486 22.23 51.9247 23.55C51.2462 21.46 51.9246 19.9 53.4911 18.54C51.2162 18.67 50.0987 17.39 49.2705 15.2C48.6419 17.62 47.2849 18.55 45.1497 18.61C46.9157 19.9 47.2949 21.52 46.5566 23.85Z" fill="white"/>
</svg>
